<svg id="Layer_1" data-name="Layer 1" xmlns="http://www.w3.org/2000/svg" viewBox="0 0 80.31 69"><defs><style>.cls-1{fill:#ea2729;}.cls-1,.cls-2,.cls-3{fill-rule:evenodd;}.cls-2{fill:#be2428;}.cls-3{fill:#fff;}</style></defs><polygon class="cls-1" points="58.44 0 80.31 0 51.12 69 29.31 69 58.44 0"/><polygon class="cls-2" points="51.12 69 31.89 69 30.6 66.28 43.44 35.7 51.12 69"/><path class="cls-3" d="M67.73,21.23h2.81l-1.11,2H66.56Zm-2.52,5h2.87l-1.17,3H64Zm-2.52,6h2.87l-1.17,3H61.52Zm-2.52,6H63l-1.17,3H59Zm-2.52,6h2.87l-1.11,3H56.53Zm-2.47,6h2.88l-1.18,3H54Zm-2.52,6h2.88l-1.18,3H51.49Zm-2.52,6H53l-1.18,3H49Zm-2.52,6H50.5l-1.18,3H46.51Zm-2.46,6H48l-1.11,3H44Zm-2.52,6h2.87l-1.17,3H41.47Zm38.22-54h2.87l-1.17,3H79.69Zm-2.52,6h2.87l-1.17,3H77.22Zm-2.46,6h2.81l-1.11,3H74.71Zm-2.52,6h2.87l-1.17,3H72.18Zm-2.52,6h2.87l-1.17,3H69.66Zm-2.52,6h2.87l-1.17,3H67.14Zm-2.52,6h2.87l-1.12,3H64.68Zm-2.47,6H66.2l-1.17,3H62.16Zm-2.52,6h2.87l-1.17,3H59.64Zm-2.52,6h2.87l-1.17,3H57.12Zm25.09-59h2.87l-1.17,2H82.21Z" transform="translate(-8.99 -17.23)"/><polygon class="cls-1" points="21.86 0 0 0 29.14 69 51 69 21.86 0"/><path class="cls-3" d="M30.56,21.23H27.75l1.11,2h2.88Zm-15.65,0H12l1.17,2h2.88ZM40,80.23H37.13l1.17,3h2.88Zm-2.52-6H34.61l1.17,3h2.87Zm-2.52-6H32.09l1.17,3h2.87Zm-2.52-6H29.63l1.11,3h2.87Zm-2.46-6H27.11l1.17,3h2.87Zm-2.52-6H24.59l1.17,3h2.87Zm-2.52-6H22.06l1.18,3h2.87Zm-2.52-6H19.6l1.12,3h2.87Zm-2.47-6H17.08l1.18,3h2.81Zm-2.52-6H14.56l1.17,3h2.88Zm38.22,54H52.78l1.17,3h2.88Zm-2.52-6H50.26l1.17,3h2.88Zm-2.46-6H47.8l1.17,3h2.82Zm-2.52-6H45.28l1.17,3h2.87Zm-2.52-6H42.76l1.17,3H46.8Zm-2.52-6H40.24l1.17,3h2.87Zm-2.52-6H37.78l1.11,3h2.87Zm-2.46-6H35.25l1.18,3H39.3Zm-2.52-6H32.73l1.18,3h2.87Zm-2.52-6H30.21l1.18,3h2.87Z" transform="translate(-8.99 -17.23)"/></svg>